<?xml version="1.0" encoding="UTF-8"?>
<svg xmlns="http://www.w3.org/2000/svg" viewBox="0 0 1700 380" width="1700" height="380">
  <title>LyctRides — Web Header Lockup (v4, outlined)</title>
  <desc>Cross-platform consistent: all text converted to paths. Crimson Pro 700 "L" + Albert Sans 500 "LyctRides".</desc>
  <!-- 圆圈 + L -->
  <circle cx="200" cy="190" r="120" fill="none" stroke="#0A0A0A" stroke-width="6"/>
  <g transform="translate(151.57 241.59) scale(0.175781 -0.175781)" fill="#0A0A0A">
    <path d="M498.15643389564536 -6.676147508826991Q473.1137701059239 -4.338073754413495 442.8878481757552 -2.9999999999999996Q412.6619262455865 -1.6619262455865045 385.61215182424485 -0.8309631227932522Q358.5623774029031 0 341.8862298940761 0H39.29540996469204L36.295409964692034 49.718811298548445L99.97155747351903 66.07110631620243Q101.97155747351903 71.07110631620243 103.14059435072578 93.59243821106315Q104.30963122793253 116.11377010592389 104.97866810513926 149.62088073754413Q105.64770498234601 183.12799136916436 105.64770498234601 220.0995488426834V366.5765986661436Q105.64770498234601 405.54815613966264 104.97866810513926 438.7243036484896Q104.30963122793253 471.9004511573166 103.14059435072578 494.0837092977638Q101.97155747351903 516.266967438211 99.97155747351903 520.6050411926245L36.295409964692034 537.2811887014516L39.29540996469204 587H327.5513927030208L330.5513927030208 535.2811887014516L247.55139270302078 519.9288936837976Q246.5513927030208 516.9288936837976 244.88235582581405 496.0765986661436Q243.2133189486073 475.2243036484896 242.2133189486073 441.7171930168694Q241.21331894860728 408.21008238524917 241.21331894860728 366.5765986661436V220.0995488426834Q241.21331894860728 161.39495880737545 242.21331894860728 126.07821694782268Q243.21331894860728 90.76147508826992 244.88946645743428 77.74725382502942Q261.9036877206748 74.74725382502943 280.2488721067085 73.74725382502942Q298.59405649274225 72.74725382502942 324.6082777559827 72.74725382502942H362.48028638681836Q384.1137701059239 72.74725382502942 401.2899176147509 74.91629070223617Q418.4660651235779 77.08532757944292 429.4376225970969 79.08532757944292L485.45184386033736 187.80413887799136L546.8610239309534 172.4518438603374Z"/>
  </g>
  <!-- 竖线 separator -->
  <line x1="380" y1="120" x2="380" y2="260" stroke="#0A0A0A" stroke-width="2" opacity="0.6"/>
  <!-- LyctRides 文字（每个字一个 path） -->
  <g fill="#0A0A0A">
    <path transform="translate(430.00 260.00) scale(0.200000 -0.200000)" d="M178.86775178026448 700V84.44557477110885H498.93387589013224V0H79.22177009155646V700Z"/>
    <path transform="translate(527.00 260.00) scale(0.200000 -0.200000)" d="M412.53306205493385 500H511.33468972533063L221.28992878942014 -200H128.4883011190234L215.7995930824008 10.466937945066125L17.844354018311293 500H122.3794506612411L267.3560528992879 120.84638860630723Z"/>
    <path transform="translate(624.80 260.00) scale(0.200000 -0.200000)" d="M285.95523906408954 -7Q213.53306205493388 -7 158.82197355035606 25.288911495422177Q104.11088504577823 57.57782299084435 73.61088504577823 114.78891149542218Q43.11088504577823 172 43.11088504577823 248Q43.11088504577823 325 73.8997965412004 383.2110885045778Q104.68870803662259 441.42217700915563 159.97761953204474 474.2110885045778Q215.26653102746693 507 288.26653102746695 507Q364.6887080366226 507 423.5554425228891 471.2110885045778Q482.42217700915563 435.42217700915563 508.42217700915563 373.57782299084437L422.66531027466937 343.7995930824008Q408.24313326551373 379.177009155646 372.78789420142425 400.07680569684635Q337.3326551373347 420.9766022380468 291.6887080366226 420.9766022380468Q246.46693794506612 420.9766022380468 213.30061037639877 399.7100712105798Q180.13428280773144 378.44354018311293 162.23448626653104 339.9104781281791Q144.33468972533063 301.3774160732452 144.33468972533063 249Q144.33468972533063 170.77822990844354 184.13428280773144 124.90081383519836Q223.93387589013224 79.0233977619532 292 79.0233977619532Q336.6439471007121 79.0233977619532 372.31027466937945 99.13428280773144Q407.9766022380468 119.24516785350967 425.8209562563581 154.2004069175992L510 124.42217700915565Q481.84435401831126 63.57782299084435 422.1108850457782 28.288911495422177Q362.3774160732452 -7 285.95523906408954 -7Z"/>
    <path transform="translate(727.40 260.00) scale(0.200000 -0.200000)" d="M103.79959308240082 500V640H199.02339776195322V500H323.93387589013224V415.55442522889115H199.02339776195322V170.24516785350966Q199.02339776195322 124.24516785350967 217.36775178026448 104.97863682604273Q235.71210579857578 85.71210579857579 264.4786368260427 83.15666327568667Q293.24516785350966 80.60122075279756 323.93387589013224 84.60122075279756V4Q283.2004069175992 -5 243.67802644964394 -1.288911495422177Q204.1556459816887 2.422177009155646 172.63326551373348 21.211088504577823Q141.11088504577822 40 122.45523906408951 76.31129196337741Q103.79959308240082 112.62258392675483 103.79959308240082 170.24516785350966V415.55442522889115H31.688708036622582V500Z"/>
    <path transform="translate(790.80 260.00) scale(0.200000 -0.200000)" d="M480.910478128179 491.26653102746695Q480.910478128179 548.4883011190234 447.08850457782296 582.0213631739573Q413.26653102746695 615.5544252288912 339.089521871821 615.5544252288912H178.86775178026448V366.9786368260427H339.5116988809766Q388.73346897253305 366.9786368260427 419.76653102746695 382.24516785350966Q450.7995930824008 397.5116988809766 465.8550356052899 425.6225839267548Q480.910478128179 453.73346897253305 480.910478128179 491.26653102746695ZM339.089521871821 700Q421.6673448626653 700 475.32299084435397 671.7110885045779Q528.9786368260427 643.4221770091557 555.5564598168871 596.055442522889Q582.1342828077314 548.6887080366225 582.1342828077314 491.26653102746695Q582.1342828077314 452.57782299084437 568.9231943031537 415.57782299084437Q555.7121057985757 378.57782299084437 526.7121057985757 348.4221770091557Q497.7121057985758 318.26653102746695 451.5564598168871 300.39979654120043Q405.4008138351984 282.53306205493385 339.5116988809766 282.53306205493385H178.86775178026448V0H79.22177009155646V700ZM403.44557477110885 316.57782299084437 596.2899287894202 0H483.3326551373347L296.6439471007121 316.57782299084437Z"/>
    <path transform="translate(910.00 260.00) scale(0.200000 -0.200000)" d="M87.37741607324517 500H181.60122075279756V0H87.37741607324517ZM135.2004069175992 587.8657171922686Q108.1556459816887 587.8657171922686 89.97761953204477 606.0437436419124Q71.79959308240082 624.2217700915564 71.79959308240082 650.266531027467Q71.79959308240082 677.3112919633775 89.97761953204477 695.4893184130215Q108.1556459816887 713.6673448626653 135.2004069175992 713.6673448626653Q160.82299084435402 713.6673448626653 179.2121057985758 695.4893184130215Q197.60122075279756 677.3112919633775 197.60122075279756 650.266531027467Q197.60122075279756 624.2217700915564 179.2121057985758 606.0437436419124Q160.82299084435402 587.8657171922686 135.2004069175992 587.8657171922686Z"/>
    <path transform="translate(955.60 260.00) scale(0.200000 -0.200000)" d="M448.55442522889115 414.60122075279753 438.24313326551373 412.44557477110885V720H532.8891149542218V0H446.55442522889115L439.8209562563581 75.08748728382503Q415.087487283825 40.59918616480162 372.4766022380468 16.79959308240081Q329.86571719226856 -7 269.22177009155644 -7Q201.37741607324517 -7 150.45523906408954 24.788911495422177Q99.53306205493388 56.57782299084435 71.32197355035606 114.57782299084437Q43.11088504577823 172.57782299084437 43.11088504577823 250Q43.11088504577823 327.42217700915563 71.32197355035606 385.2110885045778Q99.53306205493388 443 150.45523906408954 475.0Q201.37741607324517 507 269.22177009155644 507Q333.86571719226856 507 379.42115971515767 480.3336724313326Q424.9766022380468 453.6673448626653 448.55442522889115 414.60122075279753ZM144.33468972533063 250Q144.33468972533063 172.66734486266532 184.28992878942014 125.92319430315362Q224.24516785350966 79.17904374364191 291 79.17904374364191Q331.6439471007121 79.17904374364191 364.8880976602238 99.15666327568667Q398.1322482197355 119.13428280773144 418.1876907426246 157.37843336724313Q438.24313326551373 195.62258392675483 438.24313326551373 250Q438.24313326551373 304.3774160732452 418.1876907426246 342.4104781281791Q398.1322482197355 380.44354018311293 364.8880976602238 400.6322482197355Q331.6439471007121 420.8209562563581 291 420.8209562563581Q224.66734486266532 420.8209562563581 184.50101729399796 374.0768056968464Q144.33468972533063 327.3326551373347 144.33468972533063 250Z"/>
    <path transform="translate(1068.40 260.00) scale(0.200000 -0.200000)" d="M289.3112919633774 -7Q217 -7 161.3443540183113 26.422177009155646Q105.68870803662259 59.84435401831129 74.3997965412004 118.8443540183113Q43.11088504577823 177.8443540183113 43.11088504577823 254.42217700915563Q43.11088504577823 327.42217700915563 74.11088504577823 384.42217700915563Q105.11088504577823 441.42217700915563 159.6887080366226 474.2110885045778Q214.26653102746693 507 283.26653102746695 507Q353 507 406.7889114954222 476.42217700915563Q460.57782299084437 445.84435401831126 490.8667344862665 391.39979654120043Q521.1556459816887 336.95523906408954 520.3112919633775 266.06612410986776Q520.3112919633775 254.4883011190234 519.0223804679553 241.62156663275687Q517.733468972533 228.75483214649034 516.1556459816887 214.17700915564598H145.91251271617497Q149.06815869786368 173.53306205493388 168.33468972533063 143.3112919633774Q187.60122075279756 113.08952187182095 218.34537131230925 96.05645981688707Q249.08952187182095 79.0233977619532 288.46693794506615 79.0233977619532Q337.7995930824008 79.0233977619532 374.83265513733465 98.42319430315362Q411.86571719226856 117.82299084435402 426.9766022380468 151.3112919633774L509.3112919633774 121.8443540183113Q479.3112919633774 60.57782299084435 421.4445574771109 26.788911495422177Q363.57782299084437 -7 289.3112919633774 -7ZM416.9318413021363 294.77822990844356Q416.7761953204476 331.42217700915563 399.0096642929807 360.08850457782296Q381.24313326551373 388.75483214649034 350.86571719226856 405.44354018311293Q320.4883011190234 422.1322482197355 282 422.1322482197355Q248.3560528992879 422.1322482197355 219.68972533062055 405.7324516785351Q191.02339776195322 389.3326551373347 171.54577822990845 360.7441505595117Q152.06815869786368 332.15564598168874 146.91251271617497 294.77822990844356Z"/>
    <path transform="translate(1173.00 260.00) scale(0.200000 -0.200000)" d="M128.40081383519836 157.62258392675483Q134.97863682604273 127.62258392675483 152.13428280773144 110.72278738555443Q169.28992878942014 93.82299084435402 192.76754832146491 86.42319430315362Q216.24516785350966 79.0233977619532 241.57782299084437 79.0233977619532Q287.06612410986776 79.0233977619532 311.96592065106813 96.92319430315362Q336.86571719226856 114.82299084435402 336.86571719226856 141.77822990844354Q336.86571719226856 164.88911495422178 321.2324516785351 178.28891149542218Q305.5991861648016 191.6887080366226 280.33265513733465 199.87741607324517Q255.06612410986776 208.06612410986776 226.11088504577822 215.4883011190234Q199.53306205493388 222.06612410986776 169.2441505595117 230.8550356052899Q138.9552390640895 239.6439471007121 112.2441505595117 255.22177009155644Q85.53306205493388 270.7995930824008 68.53306205493388 295.3774160732452Q51.53306205493388 319.95523906408954 51.53306205493388 357.7995930824008Q51.53306205493388 403.1108850457782 76.47761953204477 436.47761953204474Q101.42217700915565 469.84435401831126 144.9445574771109 488.42217700915563Q188.46693794506612 507 243.0447609359105 507Q306.77822990844356 507 355.5671414038657 479.7110885045778Q404.3560528992879 452.42217700915563 425.6673448626653 397.15564598168874L340.6439471007121 368.53306205493385Q333.6439471007121 388.177009155646 317.7441505595117 399.86571719226856Q301.84435401831126 411.55442522889115 281.3667344862665 416.265513733469Q260.8891149542218 420.9766022380468 240.62258392675483 420.9766022380468Q202.55645981688707 420.9766022380468 177.65666327568667 406.07680569684635Q152.75686673448627 391.177009155646 152.75686673448627 361.95523906408954Q152.75686673448627 346.42217700915563 160.89013224821974 335.9445574771109Q169.02339776195322 325.46693794506615 183.57884028484233 318.6225839267548Q198.13428280773144 311.77822990844356 217.82299084435402 306.8560528992879Q237.5116988809766 301.93387589013224 260.6225839267548 295.5116988809766Q291.3560528992879 287.3560528992879 322.2227873855544 276.8560528992879Q353.089521871821 266.3560528992879 379.089521871821 250.14496439471006Q405.089521871821 233.93387589013224 421.0116988809766 208.1449643947101Q436.93387589013224 182.3560528992879 438.089521871821 143.77822990844354Q438.089521871821 100.35605289928789 413.5116988809766 66.12258392675483Q388.93387589013224 31.88911495422177 344.41149542217704 12.444557477110886Q299.8891149542218 -7 239.26653102746693 -7Q164.57782299084437 -7 112.92217700915566 25.76653102746694Q61.26653102746694 58.53306205493388 43.11088504577823 127.8443540183113Z"/>
  </g>
</svg>